<svg xmlns="http://www.w3.org/2000/svg" width="179.897" height="93.57" viewBox="0 0 179.897 93.57">
                <defs>
                    <style>
                        .a {
                            fill: #fff
                        }

                        .b {
                            fill: black
                        }
                    </style>
                </defs>
                <g transform="translate(0 329.509)">
                    <path class="a" d="M285.378-242.164l-3.9-8.708h-3.614v8.708h-2.452v-25.7h5.606a5.587,5.587,0,0,1,5.554,5.606v5.78a5.5,5.5,0,0,1-2.587,4.725l-.167.1,2.754,6.177v3.309Zm-7.511-11.16h3.154a2.908,2.908,0,0,0,2.177-.933,3.046,3.046,0,0,0,.925-2.222v-5.78a3.048,3.048,0,0,0-.929-2.224,2.9,2.9,0,0,0-2.174-.929h-3.154Z" transform="translate(-189.513 -42.418)"></path>
                    <path class="a" d="M336.015-242.164a5.613,5.613,0,0,1-5.606-5.606v-14.488a5.613,5.613,0,0,1,5.606-5.606,5.586,5.586,0,0,1,5.554,5.606v14.488A5.586,5.586,0,0,1,336.015-242.164Zm0-23.248a3.009,3.009,0,0,0-2.225.929,3.047,3.047,0,0,0-.929,2.224v14.488a3.013,3.013,0,0,0,.929,2.225,3.012,3.012,0,0,0,2.226.929,2.906,2.906,0,0,0,2.177-.933,3.009,3.009,0,0,0,.925-2.222v-14.488a3.047,3.047,0,0,0-.929-2.224A2.9,2.9,0,0,0,336.015-265.412Z" transform="translate(-227.354 -42.418)"></path>
                    <path class="a" d="M391.01-242.164a5.612,5.612,0,0,1-5.606-5.606v-1.187h2.452v1.187a3.013,3.013,0,0,0,.929,2.225,3.013,3.013,0,0,0,2.226.929,2.907,2.907,0,0,0,2.177-.933,3.009,3.009,0,0,0,.925-2.222v-2.877a2.937,2.937,0,0,0-.933-2.2,2.9,2.9,0,0,0-2.17-.925,5.612,5.612,0,0,1-5.606-5.606v-2.877a5.612,5.612,0,0,1,5.606-5.606,5.586,5.586,0,0,1,5.554,5.606v1.187h-2.452v-1.187a3.048,3.048,0,0,0-.929-2.224,2.9,2.9,0,0,0-2.173-.929,3.01,3.01,0,0,0-2.225.929,3.047,3.047,0,0,0-.929,2.224v2.877a3.145,3.145,0,0,0,3.155,3.128,5.586,5.586,0,0,1,5.554,5.606v2.877A5.587,5.587,0,0,1,391.01-242.164Z" transform="translate(-265.196 -42.418)"></path>
                    <path class="a" d="M440.4-242.164v-25.7h9.468l-1.1,2.452H442.85v7.721h5.659l-1.082,2.452H442.85v10.624h5.911l1.1,2.452Z" transform="translate(-303.038 -42.418)"></path>
                    <path class="a" d="M285.4-141.564l-.662-1.409-.223.177a5.5,5.5,0,0,1-3.5,1.232,5.613,5.613,0,0,1-5.606-5.606v-14.488a5.613,5.613,0,0,1,5.606-5.606,5.587,5.587,0,0,1,5.554,5.606v1.187h-2.452v-1.187a3.049,3.049,0,0,0-.929-2.225,2.9,2.9,0,0,0-2.174-.929,3.011,3.011,0,0,0-2.225.929,3.049,3.049,0,0,0-.929,2.225v14.488a3.014,3.014,0,0,0,.928,2.225,3.013,3.013,0,0,0,2.226.929,2.908,2.908,0,0,0,2.177-.933,3.01,3.01,0,0,0,.925-2.222v-4.567h-3.27l-1.1-2.452h6.827v12.625Z" transform="translate(-189.513 -111.641)"></path>
                    <path class="a" d="M337.293-167.261h-2.578l-4.3,24.376v1.324h2.277l1.257-7.244h4.092l1.281,7.244h2.253v-1.324Zm-2.905,15.976,1.6-9.367,1.6,9.367Z" transform="translate(-227.356 -111.643)"></path>
                    <path class="a" d="M395.367-141.564l-3.9-8.708h-3.615v8.708H385.4v-25.7h5.606a5.587,5.587,0,0,1,5.554,5.606v5.779a5.5,5.5,0,0,1-2.587,4.725l-.167.1,2.754,6.177v3.31Zm-7.511-11.16h3.155a2.907,2.907,0,0,0,2.177-.933,3.045,3.045,0,0,0,.925-2.222v-5.779a3.049,3.049,0,0,0-.929-2.225,2.9,2.9,0,0,0-2.173-.929h-3.155Z" transform="translate(-265.196 -111.641)"></path>
                    <path class="a" d="M440.4-141.564v-25.7H446a5.586,5.586,0,0,1,5.554,5.606v14.488A5.586,5.586,0,0,1,446-141.564Zm2.452-2.452H446a2.906,2.906,0,0,0,2.177-.933,3.008,3.008,0,0,0,.925-2.222v-14.488a3.048,3.048,0,0,0-.929-2.225,2.9,2.9,0,0,0-2.173-.929H442.85Z" transform="translate(-303.038 -111.641)"></path>
                    <path class="a" d="M495.393-141.564v-25.7h9.468l-1.1,2.452h-5.911v7.721H503.5l-1.082,2.452h-4.577v10.624h5.911l1.1,2.452Z" transform="translate(-340.88 -111.641)"></path>
                    <path class="a" d="M550.959-141.564l-7.511-16.865v16.865H541v-25.7h1.249l7.46,16.873v-16.873h2.452v25.7Z" transform="translate(-372.259 -111.641)"></path>
                    <path class="b" d="M47.81-196.4a25.277,25.277,0,0,1-25.244-25.253v-14.921a25.112,25.112,0,0,1,6.467-16.844l1.453,1.65a23.01,23.01,0,0,0-5.731,15.194v14.921A23.086,23.086,0,0,0,47.81-198.584a22.958,22.958,0,0,0,3.331-.241l.929,2.063A24.556,24.556,0,0,1,47.81-196.4Zm10.35-4.649a23.19,23.19,0,0,0,9.12-8.264,22.958,22.958,0,0,0,3.585-12.34v-14.921A23.081,23.081,0,0,0,47.81-259.624a22.973,22.973,0,0,0-11.709,3.2l-1.468-1.666a25.1,25.1,0,0,1,13.177-3.723,25.273,25.273,0,0,1,25.244,25.244v14.921A25.139,25.139,0,0,1,69.1-208.1a25.39,25.39,0,0,1-10.046,9.053Z" transform="translate(-15.528 -46.582)"></path>
                    <path class="b" d="M32.282-204.884A31.878,31.878,0,0,1,12.751-211.5l1.65-1.482a29.788,29.788,0,0,0,17.881,5.908A30.052,30.052,0,0,0,55.33-217.832l1.632,1.443A32.19,32.19,0,0,1,32.282-204.884ZM7.46-216.56A32.271,32.271,0,0,1,0-237.175v-3.989H2.189v3.989a30.116,30.116,0,0,0,6.9,19.156Zm51.889-7.465a29.765,29.765,0,0,0,3.026-13.15V-252.1a30.063,30.063,0,0,0-1.3-8.751l1.793-1.581A32.312,32.312,0,0,1,64.564-252.1v14.921a32.264,32.264,0,0,1-3.52,14.648Zm-1.414-43.788A30.382,30.382,0,0,0,47.3-278.166a30.032,30.032,0,0,0-15.022-4.023,30.042,30.042,0,0,0-15.018,4.022A30.382,30.382,0,0,0,6.628-267.821l-1.66-1.464a32.127,32.127,0,0,1,27.314-15.093,32.25,32.25,0,0,1,15.906,4.193,32.527,32.527,0,0,1,11.409,10.9Z" transform="translate(0 -31.055)"></path>
                    <path class="b" d="M78.3-323.664a43.662,43.662,0,0,0-17.589-3.656,43.821,43.821,0,0,0-17.6,3.648l-1.8-1.583a45.882,45.882,0,0,1,19.394-4.253,45.873,45.873,0,0,1,19.394,4.253Z" transform="translate(-28.432 0)"></path>
                    <path class="b" d="M71.679-296.477a37.188,37.188,0,0,0-23.352-8.279,37.189,37.189,0,0,0-23.352,8.278l-1.657-1.467a39.333,39.333,0,0,1,25.009-9,39.335,39.335,0,0,1,25.009,9Z" transform="translate(-16.046 -15.527)"></path>
                    <path class="b" d="M63.337-187.906a17.924,17.924,0,0,1-3.784-.4L61-190.269a15.193,15.193,0,0,0,2.337.175A16.04,16.04,0,0,0,79.354-206.12v-14.921a15.783,15.783,0,0,0-3.339-9.773l1.642-1.452a18.251,18.251,0,0,1,3.885,11.225v14.921A18.231,18.231,0,0,1,63.337-187.906Zm-10.625-3.438a18.232,18.232,0,0,1-7.581-14.776v-14.921a18.206,18.206,0,0,1,4.293-11.722A18.324,18.324,0,0,1,53.1-236.1l.085-.055a18.161,18.161,0,0,1,10.147-3.094,18.132,18.132,0,0,1,8.691,2.218l-1.759,1.546a15.828,15.828,0,0,0-6.932-1.576,16.035,16.035,0,0,0-16.017,16.017v14.921A16.052,16.052,0,0,0,54.01-193.1Z" transform="translate(-31.055 -62.109)"></path>
                    <path class="b" d="M78.864-179.417A11.185,11.185,0,0,1,67.7-190.593v-14.921a11.18,11.18,0,0,1,11.168-11.168,10.865,10.865,0,0,1,3.939.724,11.089,11.089,0,0,1,4.951,3.7,11.005,11.005,0,0,1,2.277,6.744v14.921c0,.273-.008.518-.025.746l-2.164-1.912v-13.755a8.989,8.989,0,0,0-8.979-8.979,8.989,8.989,0,0,0-8.979,8.979v14.921a8.993,8.993,0,0,0,8.979,8.988,8.992,8.992,0,0,0,6.4-2.693l1.635,1.453A11.176,11.176,0,0,1,78.864-179.417Z" transform="translate(-46.582 -77.636)"></path>
                    <path class="b" d="M98.688-170.48l-3.236-7.233H92.387v7.233h-1.96v-21.269h4.618a4.6,4.6,0,0,1,4.575,4.618v4.8a4.531,4.531,0,0,1-2.13,3.892l-.167.1,2.3,5.154v2.7Zm-6.3-9.193h2.659a2.45,2.45,0,0,0,1.835-.786,2.565,2.565,0,0,0,.779-1.872v-4.8a2.569,2.569,0,0,0-.783-1.876,2.447,2.447,0,0,0-1.831-.783H92.387Z" transform="translate(-62.223 -94.793)"></path>
                </g>
            </svg>